{"title":"Teen Lust (2015) 1080P WEB-DL.DD5.1.H.264","uid":12438942,"size":3026414330,"categoryP":"video","categoryS":"hd___movies","magnet":"?xt=urn:btih:826cf41ebc06cfd5c0834782d3af0bca4d607deb&amp;dn=Teen+Lust+%282015%29+1080P+WEB-DL.DD5.1.H.264&amp;tr=udp%3A%2F%2Ftracker.openbittorrent.com%3A80&amp;tr=udp%3A%2F%2Fopen.demonii.com%3A1337&amp;tr=udp%3A%2F%2Ftracker.coppersurfer.tk%3A6969&amp;tr=udp%3A%2F%2Fexodus.desync.com%3A6969","seeders":1,"leechers":3,"uploader":"jmanwf","files":2,"time":1442552879,"description":"An awkward and inexperienced high school nerd must do everything in his power to lose his virginity before his parents and their cult can offer him as sacrifice to their dark lord.Video\n\nVideo\nID : 2\nFormat : AVC\nFormat/Info : Advanced Video Codec\nFormat profile : High@L4\nFormat settings, CABAC : Yes\nFormat settings, ReFrames : 5 frames\nCodec ID : avc1\nCodec ID/Info : Advanced Video Coding\nDuration : 1h 20mn\nBit rate : 4 522 Kbps\nWidth : 1 912 pixels\nHeight : 804 pixels\nDisplay aspect ratio : 2.40:1\nFrame rate mode : Variable\nFrame rate : 23.976 fps\nMinimum frame rate : 23.976 fps\nMaximum frame rate : 24.072 fps\nColor space : YUV\nChroma subsampling : 4:2:0\nBit depth : 8 bits\nScan type : Progressive\nBits/(Pixel*Frame) : 0.123\nStream size : 2.53 GiB (90%)\nLanguage : English\nEncoded date : UTC 2015-09-17 11:10:34\nTagged date : UTC 2015-09-17 11:16:25\nColor range : Limited\nColor primaries : BT.709\nTransfer characteristics : BT.709\nMatrix coefficients : BT.709\n\nAudio #1\nID : 1\nFormat : AAC\nFormat/Info : Advanced Audio Codec\nFormat profile : LC\nCodec ID : 40\nDuration : 1h 20mn\nDuration_LastFrame : -2ms\nBit rate mode : Variable\nBit rate : 126 Kbps\nMaximum bit rate : 194 Kbps\nChannel(s) : 2 channels\nChannel positions : Front: L R\nSampling rate : 48.0 KHz\nCompression mode : Lossy\nStream size : 72.2 MiB (3%)\nLanguage : English\nEncoded date : UTC 2015-09-17 11:10:34\nTagged date : UTC 2015-09-17 11:16:25\n\nAudio #2\nID : 3\nFormat : AC-3\nFormat/Info : Audio Coding 3\nMode extension : CM (complete main)\nFormat settings, Endianness : Big\nCodec ID : ac-3\nDuration : 1h 20mn\nDuration_LastFrame : -1ms\nBit rate mode : Constant\nBit rate : 384 Kbps\nChannel(s) : 6 channels\nChannel positions : Front: L C R, Side: L R, LFE\nSampling rate : 48.0 KHz\nBit depth : 16 bits\nCompression mode : Lossy\nStream size : 220 MiB (8%)\nLanguage : English\nEncoded date : UTC 2015-09-17 11:10:34\nTagged date : UTC 2015-09-17 11:16:25\n\nText\nID : 4-CC1\nFormat : EIA-608\nMuxing mode : Final Cut\nCodec ID : c608\nDuration : 1h 13mn\nBit rate mode : Constant\nStream size : 0.00 Byte (0%)\nLanguage : English\nEncoded date : UTC 2015-09-17 11:10:34\nTagged date : UTC 2015-09-17 11:15:33\n\n &lt;a href=&quot;\nhttp://s18.postimg.org/3kp2adp1l/image.jpg&quot; rel=&quot;nofollow&quot; target=&quot;_NEW&quot;&gt;\nhttp://s18.postimg.org/3kp2adp1l/image.jpg&lt;/a&gt;\n\n\n &lt;a href=&quot;\nhttp://s18.postimg.org/9mwp0vdhl/image.jpg&quot; rel=&quot;nofollow&quot; target=&quot;_NEW&quot;&gt;\nhttp://s18.postimg.org/9mwp0vdhl/image.jpg&lt;/a&gt;\n\n\n &lt;a href=&quot;\nhttp://s18.postimg.org/ldami96a1/image.jpg&quot; rel=&quot;nofollow&quot; target=&quot;_NEW&quot;&gt;\nhttp://s18.postimg.org/ldami96a1/image.jpg&lt;/a&gt;\n\n\n &lt;a href=&quot;\nhttp://www.imdb.com/title/tt1718915/&quot; rel=&quot;nofollow&quot; target=&quot;_NEW&quot;&gt;\nhttp://www.imdb.com/title/tt1718915/&lt;/a&gt;","torrent":{"xt":"urn:btih:826cf41ebc06cfd5c0834782d3af0bca4d607deb","amp;dn":"Teen+Lust+%282015%29+1080P+WEB-DL.DD5.1.H.264","amp;tr":["udp%3A%2F%2Ftracker.openbittorrent.com%3A80","udp%3A%2F%2Fopen.demonii.com%3A1337","udp%3A%2F%2Ftracker.coppersurfer.tk%3A6969","udp%3A%2F%2Fexodus.desync.com%3A6969"],"infoHash":"826cf41ebc06cfd5c0834782d3af0bca4d607deb","infoHashBuffer":{"type":"Buffer","data":[130,108,244,30,188,6,207,213,192,131,71,130,211,175,11,202,77,96,125,235]},"announce":[],"urlList":[]}}